<svg   t="1711418553845"  viewBox="0 0 1024 1024" version="1.1" xmlns="http://www.w3.org/2000/svg" p-id="17146" width="26" height="26">
    <path  d="M585.142857 402.285714h160.914286c21.942857 0 43.885714 7.314286 58.514286 29.257143 29.257143 29.257143 21.942857 80.457143-7.314286 102.4L555.885714 731.428571c-29.257143 21.942857-65.828571 21.942857-95.085714 0L226.742857 533.942857c-14.628571-14.628571-21.942857-36.571429-21.942857-58.514286 0-43.885714 29.257143-73.142857 73.142857-73.142857H438.857143v-146.285714c0-43.885714 29.257143-73.142857 73.142857-73.142857s73.142857 29.257143 73.142857 73.142857v146.285714zM475.428571 36.571429h73.142858c21.942857 0 36.571429 14.628571 36.571428 36.571428s-14.628571 36.571429-36.571428 36.571429h-73.142858c-21.942857 0-36.571429-14.628571-36.571428-36.571429s14.628571-36.571429 36.571428-36.571428zM146.285714 841.142857h731.428572c43.885714 0 73.142857 29.257143 73.142857 73.142857s-29.257143 73.142857-73.142857 73.142857H146.285714c-43.885714 0-73.142857-29.257143-73.142857-73.142857s29.257143-73.142857 73.142857-73.142857z"  p-id="17147"></path>
</svg>