<svg t="1713161858798"  viewBox="0 0 1024 1024" version="1.1" xmlns="http://www.w3.org/2000/svg" p-id="17884" width="32" height="32">
    <path  d="M537.856 248.032c45.376 0 82.24 12.032 110.592 37.568 28.352 24.8 42.528 58.816 42.528 101.344 0 34.752-9.216 63.808-26.944 86.496-6.4 7.776-26.24 26.24-59.52 55.264-13.472 11.36-23.424 24.128-29.76 36.864-7.84 14.176-11.36 29.76-11.36 46.784v12.064h-75.84v-12.064c0-26.24 4.224-48.896 14.176-67.328 9.184-19.84 36.16-48.896 80.096-87.904l12.032-13.44c12.768-16.32 19.84-33.344 19.84-51.776 0-24.8-7.072-43.936-20.544-58.112-14.176-14.176-34.72-21.28-60.256-21.28-31.904 0-55.296 9.92-69.44 30.496-12.8 17.024-19.168 41.12-19.168 72.32h-74.432c0-51.776 14.912-92.16 44.672-121.92 29.76-30.496 70.88-45.376 123.328-45.376z m-12.736 414.656c14.88 0 27.616 4.256 37.568 14.176 9.92 9.216 14.88 21.28 14.88 36.16 0 14.88-5.696 26.912-15.616 36.864-9.92 9.216-22.656 14.176-36.832 14.176-14.208 0-26.944-4.96-36.864-14.912a49.216 49.216 0 0 1-14.912-36.16c0-14.848 4.992-26.912 14.912-36.128 9.92-9.92 22.656-14.176 36.864-14.176z"  p-id="17885"></path>
</svg>