<svg t="1712628077118"  viewBox="0 0 1024 1024" version="1.1" xmlns="http://www.w3.org/2000/svg" p-id="17430" width="48" height="48">
    <path  d="M491.093333 810.325333l-253.781333-253.866666 253.781333-253.781334 253.866667 253.824-253.866667 253.824z m186.154667-253.866666L491.093333 370.346667l-186.112 186.154666 186.112 186.112 186.154667-186.112z" p-id="17431"></path>
    <path  d="M311.637333 520.746667h330.112l63.018667 34.176-222.208 205.141333-205.098667-205.141333 34.133334-34.176zM403.626667 213.333333l129.152 129.152-33.834667 33.834667-129.152-129.152L403.626667 213.333333zM694.528 712.192a47.872 47.872 0 1 0 95.701333 0 47.872 47.872 0 0 0-95.701333 0z" p-id="17432"></path>
    <path  d="M701.312 687.957333l40.746667-63.786666 40.704 61.098666"  p-id="17433"></path>
</svg>